<?xml version="1.0" standalone="no"?>
<!DOCTYPE svg PUBLIC "-//W3C//DTD SVG 20010904//EN"
 "http://www.w3.org/TR/2001/REC-SVG-20010904/DTD/svg10.dtd">
<svg version="1.0" xmlns="http://www.w3.org/2000/svg"
 width="1615.000000pt" height="507.000000pt" viewBox="0 0 1615.000000 507.000000"
 preserveAspectRatio="xMidYMid meet">

<g transform="translate(0.000000,507.000000) scale(0.100000,-0.100000)"
fill="#ffffff" stroke="none">
<path d="M15330 4608 c0 -10 -62 -183 -70 -193 -4 -5 -10 -27 -14 -47 -4 -21
-27 -87 -51 -148 -25 -61 -45 -117 -45 -125 0 -8 -4 -15 -9 -15 -9 0 -24 -41
-26 -70 0 -8 -9 -40 -19 -72 -15 -42 -23 -55 -35 -51 -13 4 -13 3 -2 -5 12 -9
12 -16 -2 -48 -9 -22 -16 -32 -16 -25 -1 13 -3 13 -13 2 -9 -10 -10 -15 -2
-18 8 -3 5 -27 -11 -77 -22 -70 -44 -121 -45 -102 0 5 -7 3 -15 -4 -8 -7 -15
-29 -15 -50 0 -21 -8 -47 -19 -61 -10 -13 -21 -44 -24 -69 -6 -60 -28 -133
-41 -142 -6 -4 -7 -8 -3 -8 5 0 1 -7 -8 -17 -12 -12 -15 -25 -10 -50 4 -25 2
-35 -10 -39 -10 -4 -15 -19 -15 -48 0 -23 -7 -51 -15 -63 -9 -12 -24 -50 -35
-84 -11 -34 -25 -67 -30 -74 -5 -7 -7 -14 -4 -17 3 -4 -1 -19 -9 -35 -8 -15
-13 -40 -10 -55 3 -14 0 -29 -6 -32 -6 -4 -11 -16 -11 -27 0 -10 -5 -19 -11
-19 -6 0 -8 -8 -5 -17 3 -10 -1 -31 -9 -47 -8 -15 -15 -37 -15 -47 0 -11 -4
-19 -8 -19 -5 0 -9 -6 -10 -12 -2 -25 -14 -73 -21 -93 -5 -11 -18 -60 -29
-110 -39 -176 -100 -403 -116 -433 -9 -17 -16 -39 -16 -49 0 -10 -22 -84 -48
-163 -27 -80 -55 -170 -62 -200 -7 -30 -19 -66 -26 -80 -7 -14 -20 -54 -29
-90 -16 -67 -62 -177 -70 -168 -11 10 -35 154 -50 297 -8 85 -18 158 -22 164
-3 5 -9 66 -14 136 -4 69 -13 160 -19 201 -6 41 -14 149 -19 240 -5 91 -15
221 -21 290 -7 69 -10 145 -7 170 2 25 1 56 -2 70 -4 13 -4 46 -1 73 4 26 3
50 -2 53 -4 3 -8 15 -8 27 -1 12 -2 52 -3 89 -1 36 -5 69 -8 72 -3 3 -1 41 3
85 12 109 -10 157 -107 235 -63 51 -74 56 -112 54 -24 -1 -48 3 -55 10 -16 16
-35 15 -42 -3 -7 -18 -33 -20 -39 -2 -3 10 -11 10 -39 0 -19 -7 -50 -13 -69
-13 -25 0 -43 -8 -59 -25 -21 -22 -22 -31 -18 -102 6 -88 1 -108 -67 -253 -25
-53 -52 -127 -61 -165 -17 -74 -53 -174 -85 -237 -5 -10 -9 -30 -9 -45 0 -14
-6 -34 -13 -42 -8 -9 -19 -43 -26 -76 -7 -33 -17 -79 -23 -102 -6 -23 -7 -46
-3 -52 3 -6 0 -11 -7 -11 -7 0 -22 -28 -33 -62 -10 -35 -22 -65 -25 -68 -3 -3
-14 -41 -25 -85 -10 -44 -22 -82 -27 -85 -4 -3 -10 -21 -13 -40 -14 -94 -25
-143 -33 -153 -5 -7 -12 -39 -15 -71 -3 -33 -10 -62 -15 -65 -11 -8 -33 -71
-28 -80 3 -4 -10 -51 -29 -105 -18 -54 -41 -141 -50 -194 -9 -53 -26 -115 -36
-138 -25 -54 -24 -73 7 -84 20 -8 24 -15 19 -31 -6 -19 -5 -20 17 -8 26 14 59
19 52 8 -9 -15 16 -20 61 -13 34 5 45 11 45 24 0 31 27 50 61 43 22 -4 29 -2
27 8 -2 9 4 13 15 11 27 -5 48 17 41 42 -4 16 -1 14 14 -7 12 -18 22 -25 26
-18 4 6 4 11 -1 11 -4 1 4 7 19 15 25 14 27 19 26 83 0 37 5 80 11 96 9 22 9
31 0 36 -8 6 -7 9 2 12 9 3 15 22 17 49 1 24 4 64 6 89 5 54 64 339 74 354 4
6 12 38 18 71 13 70 45 190 81 295 14 41 31 102 38 135 7 33 20 80 29 105 8
25 16 54 17 65 3 46 29 -129 49 -335 5 -58 17 -148 25 -200 8 -52 19 -153 25
-225 6 -71 17 -173 25 -225 8 -52 22 -151 30 -220 26 -198 36 -240 106 -420
14 -34 66 -87 81 -83 4 2 8 -8 8 -22 0 -19 8 -28 34 -39 19 -8 38 -21 42 -29
15 -24 64 -34 122 -25 186 29 331 129 408 281 20 40 42 83 49 97 78 153 103
233 200 620 36 146 72 288 80 316 8 28 15 70 15 93 0 23 6 56 13 74 8 18 17
50 21 72 4 22 18 78 31 125 23 80 55 222 75 335 5 28 14 73 20 100 6 28 14 66
19 86 4 20 4 47 -1 60 -6 15 -5 33 1 47 6 13 11 34 11 48 0 13 13 48 29 77 17
28 43 102 60 162 16 61 34 122 40 137 8 22 6 31 -11 53 l-21 27 22 28 c11 16
21 44 21 62 0 18 11 57 25 86 26 56 34 145 15 157 -5 3 -10 -3 -10 -14 0 -12
-4 -21 -10 -21 -13 0 -14 -7 15 90 25 84 33 137 13 90 -19 -45 -26 -64 -36
-100 l-10 -35 -1 42 c-1 23 8 63 19 89 12 26 24 67 27 91 3 24 10 43 14 43 5
0 9 15 9 33 0 17 7 54 15 81 8 27 15 70 15 95 0 25 7 82 15 125 14 72 14 81 0
95 -8 8 -15 13 -15 9z m-121 -828 c0 -9 -3 -7 -8 5 -8 19 -8 19 -16 -5 -5 -15
-4 -25 4 -28 16 -5 14 -77 -3 -91 -28 -24 -27 116 2 163 6 11 21 -20 21 -44z
m-55 -228 c-4 -12 -11 -22 -16 -22 -6 0 -7 7 -4 16 3 9 6 23 6 32 0 10 3 13
10 6 5 -5 7 -19 4 -32z m52 -44 c-4 -13 -9 -36 -12 -53 -3 -16 -12 -46 -19
-65 -8 -19 -22 -62 -31 -95 -10 -33 -19 -52 -21 -43 -4 16 40 178 58 210 5 10
9 29 9 43 0 14 5 25 11 25 7 0 9 -9 5 -22z m-131 -117 c-23 -61 -35 -73 -35
-34 0 18 5 35 10 38 6 3 10 17 10 31 0 13 5 24 10 24 6 0 11 8 11 18 1 10 4 8
6 -7 3 -13 -3 -44 -12 -70z m-75 -206 c0 -14 -4 -25 -9 -25 -4 0 -6 11 -3 25
2 14 6 25 8 25 2 0 4 -11 4 -25z m-53 -134 c0 -11 -5 -18 -9 -15 -4 3 -5 11
-1 19 7 21 12 19 10 -4z m-20 -83 c-3 -7 -5 -2 -5 12 0 14 2 19 5 13 2 -7 2
-19 0 -25z m-1357 -67 c0 -27 -17 -35 -23 -11 -5 19 0 30 15 30 4 0 8 -9 8
-19z m-66 -97 c3 -8 2 -12 -4 -9 -6 3 -10 1 -10 -6 0 -7 -3 -10 -6 -6 -7 6 2
37 10 37 2 0 7 -7 10 -16z m-18 -86 c-8 -33 -12 -37 -14 -19 -5 30 6 73 17 67
5 -3 3 -25 -3 -48z m111 -75 c-3 -40 -12 -86 -20 -102 -8 -16 -27 -76 -43
-134 -15 -58 -31 -104 -35 -102 -3 3 -9 -17 -12 -43 -7 -60 -37 -128 -49 -110
-4 7 -8 -17 -8 -55 0 -84 -29 -211 -41 -180 -10 27 14 228 36 308 19 67 19 66
9 118 -4 25 -3 37 5 37 13 0 41 64 41 96 0 12 5 26 11 29 19 12 30 56 18 71
-7 9 -7 18 0 31 9 16 10 15 11 -7 1 -22 2 -23 11 -7 6 10 8 29 5 42 -6 23 15
86 37 110 20 21 30 -21 24 -102z m1273 91 c0 -8 -5 -12 -10 -9 -6 4 -8 11 -5
16 9 14 15 11 15 -7z m-1439 -131 c-12 -20 -14 -14 -5 12 4 9 9 14 11 11 3 -2
0 -13 -6 -23z m-1 -48 c0 -8 -4 -15 -10 -15 -5 0 -10 7 -10 15 0 8 5 15 10 15
6 0 10 -7 10 -15z m-190 -520 c6 14 8 5 8 -30 0 -27 -2 -42 -5 -32 -2 9 -8 17
-13 17 -11 0 -19 50 -11 69 4 11 7 7 10 -14 3 -26 4 -28 11 -10z m120 5 c0 -5
-2 -10 -4 -10 -3 0 -8 5 -11 10 -3 6 -1 10 4 10 6 0 11 -4 11 -10z"/>
<path d="M7733 4455 c-6 -29 -30 -100 -53 -158 -39 -100 -43 -107 -73 -112
-100 -16 -368 -46 -400 -43 -21 1 -41 -3 -45 -9 -4 -6 -41 -12 -82 -14 -41 -1
-81 -8 -89 -13 -12 -9 -13 -7 -8 7 5 15 2 16 -21 11 -20 -4 -23 -3 -12 5 21
14 6 25 -18 12 -11 -6 -28 -8 -36 -5 -11 4 -16 1 -16 -10 0 -9 -8 -16 -20 -16
-13 0 -18 5 -14 15 5 11 2 13 -10 9 -9 -3 -16 -10 -16 -16 0 -5 -5 -6 -10 -3
-16 10 -70 15 -70 7 0 -7 -72 -11 -255 -15 -49 -1 -96 -6 -102 -10 -7 -5 -19
-5 -25 0 -7 4 -36 8 -64 9 -47 2 -111 25 -125 46 -8 13 -41 -3 -35 -17 8 -21
-6 -26 -25 -9 -25 22 -31 3 -14 -45 l14 -41 -41 0 c-38 0 -40 -1 -34 -25 4
-14 1 -34 -6 -44 -10 -17 -9 -25 11 -51 12 -17 20 -37 18 -45 -3 -7 3 -29 14
-49 10 -20 19 -45 19 -56 0 -11 4 -20 9 -20 5 0 12 -12 16 -27 3 -14 20 -46
37 -69 l30 -42 71 4 c40 2 99 6 132 9 64 5 208 30 222 38 14 9 471 89 553 98
70 7 227 45 205 49 -13 3 63 19 93 19 14 1 21 -3 17 -9 -4 -7 2 -9 19 -4 21 5
25 3 20 -9 -3 -8 1 -21 9 -28 13 -12 10 -24 -26 -93 -22 -44 -42 -86 -43 -95
-15 -89 -52 -171 -79 -171 -10 0 -36 -76 -41 -120 -1 -8 -13 -40 -26 -70 -14
-30 -23 -60 -21 -67 2 -6 -1 -14 -6 -18 -6 -3 -11 -13 -11 -21 0 -8 14 2 33
23 17 21 35 40 40 41 4 2 4 8 1 13 -3 6 1 21 10 34 19 29 21 49 4 39 -7 -4 -2
5 11 19 17 19 24 38 24 64 l-1 38 9 -30 c12 -40 5 -78 -37 -185 -21 -55 -34
-107 -34 -135 0 -25 -4 -45 -9 -45 -5 0 -13 -10 -16 -22 -4 -13 -17 -45 -30
-73 -13 -27 -28 -75 -35 -105 -7 -30 -20 -71 -29 -90 -10 -19 -21 -47 -25 -62
-12 -50 -24 -29 -21 37 1 36 9 80 18 98 8 18 19 45 23 61 5 16 13 28 18 27 12
-4 29 27 21 39 -3 6 -1 10 5 10 7 0 9 8 5 19 -4 14 0 23 13 30 17 9 35 58 37
101 0 8 4 21 8 28 5 8 2 12 -8 12 -9 0 -16 -7 -14 -17 3 -33 -1 -42 -14 -37
-8 3 -18 -6 -25 -21 -6 -14 -16 -25 -22 -25 -6 0 -6 -7 2 -20 15 -24 0 -75
-22 -75 -8 0 -15 -9 -16 -20 -2 -47 -5 -54 -24 -60 -17 -6 -20 -15 -20 -73 0
-80 -8 -112 -26 -112 -8 0 -14 -6 -14 -13 0 -8 -9 -22 -20 -32 -11 -10 -22
-34 -25 -54 -3 -20 -35 -126 -70 -236 -35 -110 -79 -254 -98 -320 -19 -66 -42
-141 -50 -167 -9 -27 -12 -48 -7 -48 6 0 10 7 10 15 0 8 9 19 20 25 17 9 20 8
19 -7 -1 -24 -17 -71 -18 -55 -1 17 -21 15 -21 -3 0 -8 -4 -15 -9 -15 -10 0
-24 -30 -17 -37 2 -2 13 6 25 18 12 13 21 20 21 16 0 -23 -44 -133 -56 -140
-8 -5 -14 -24 -14 -45 0 -26 -6 -41 -20 -50 -11 -7 -20 -19 -20 -27 0 -8 -4
-15 -9 -15 -10 0 -20 -34 -67 -245 -20 -88 -42 -167 -50 -176 -8 -9 -12 -18
-10 -20 3 -2 -2 -31 -10 -64 -14 -60 -20 -318 -8 -349 4 -12 16 -4 50 32 66
71 71 77 78 107 4 15 16 29 26 32 13 3 20 14 20 29 0 15 6 24 16 24 8 0 26 13
40 29 13 16 40 36 59 45 30 15 35 22 35 51 0 24 5 35 15 35 8 0 33 18 56 40
33 32 44 53 59 109 20 79 26 91 45 91 9 0 21 22 30 58 23 82 34 105 48 99 9
-3 58 131 166 457 225 677 351 1038 371 1061 9 11 31 70 49 130 39 131 130
377 239 645 73 178 82 195 108 202 16 5 110 13 209 18 99 5 250 15 335 22 85
7 198 12 250 10 82 -3 158 4 283 23 17 3 26 1 22 -5 -8 -14 85 -13 179 1 110
17 125 6 51 -37 -33 -18 -68 -34 -78 -34 -11 0 -17 -6 -15 -17 2 -12 -12 -21
-59 -35 -40 -12 -63 -24 -63 -33 0 -8 -7 -15 -16 -15 -8 0 -22 -7 -31 -15 -8
-8 -19 -12 -25 -9 -5 3 -19 -3 -31 -14 -12 -11 -41 -32 -65 -47 -23 -15 -41
-29 -39 -31 1 -2 21 1 43 6 22 5 107 21 189 35 82 14 152 29 155 33 10 15 96
42 155 48 33 4 69 12 80 17 11 6 43 14 70 18 115 18 181 32 192 41 7 5 29 10
49 10 20 0 50 6 68 13 17 7 76 23 131 34 118 26 187 56 183 79 -2 13 4 17 24
15 20 -1 25 2 21 13 -3 8 1 15 8 15 8 1 21 3 29 4 8 1 21 3 28 4 6 0 12 8 12
16 0 8 7 15 15 15 24 0 17 29 -10 42 -27 12 -30 19 -15 34 18 18 -1 53 -31 59
-20 5 -29 12 -27 23 4 31 -21 64 -43 57 -27 -9 -77 12 -84 35 -6 20 -32 33
-47 24 -5 -3 -2 -12 8 -19 17 -12 16 -13 -3 -23 -11 -6 -23 -9 -26 -5 -3 3
-55 7 -114 10 -59 2 -124 8 -143 13 -19 4 -235 7 -480 5 -439 -3 -835 -21
-1114 -50 -76 -8 -140 -15 -142 -15 -1 0 -19 29 -39 64 -36 64 -63 84 -99 70
-10 -4 -26 5 -43 24 -30 32 -161 79 -190 68 -8 -3 -20 -3 -26 1 -7 4 -24 8
-38 9 -23 1 -26 -4 -36 -51z m1277 -153 c0 -4 26 -5 57 -4 32 2 55 1 51 -3
-12 -12 -123 -23 -135 -13 -7 5 -21 7 -33 3 -19 -6 -27 4 -14 17 8 8 74 7 74
0z m572 -14 c-9 -9 -15 -9 -24 0 -9 9 -7 12 12 12 19 0 21 -3 12 -12z m518
-10 c0 -5 -9 -4 -20 2 -11 6 -20 12 -20 14 0 2 9 2 20 -1 11 -3 20 -9 20 -15z
m-1203 6 c-3 -3 -12 -4 -19 -1 -8 3 -5 6 6 6 11 1 17 -2 13 -5z m-117 -14
c-14 -4 -57 -8 -95 -9 -39 -1 -95 -7 -125 -15 -29 -8 -59 -12 -67 -9 -7 3 -16
-2 -19 -11 -4 -11 -17 -15 -47 -13 -23 1 -44 5 -47 9 -6 8 -98 -9 -122 -22
-14 -8 -18 -6 -18 5 0 29 43 43 163 49 65 4 128 11 140 15 12 5 76 9 142 9 74
0 110 -3 95 -8z m870 -31 c0 -7 -11 -8 -30 -4 -23 5 -30 3 -30 -9 0 -13 13
-16 73 -16 39 0 83 -3 97 -7 22 -6 19 -8 -25 -19 -27 -7 -52 -9 -55 -5 -3 4
-27 10 -53 13 -57 7 -58 7 -50 36 4 17 13 22 39 22 19 0 34 -5 34 -11z m145 0
c4 -6 13 -8 21 -5 8 3 14 1 14 -4 0 -13 -23 -13 -35 -1 -6 5 -26 11 -45 14
l-35 4 37 1 c20 1 40 -3 43 -9z m-805 -14 c7 -8 18 -15 24 -15 6 0 4 4 -4 10
-12 8 -12 10 3 16 10 4 23 2 30 -5 15 -15 80 -14 95 1 7 7 12 8 12 3 0 -6 20
-10 44 -9 40 1 43 -1 33 -18 -7 -10 -15 -18 -19 -18 -3 0 -14 -3 -24 -7 -13
-5 -16 -3 -11 10 7 20 1 21 -42 6 -37 -13 -42 -28 -6 -21 15 3 25 0 25 -8 0
-15 76 -4 107 16 13 8 33 12 47 8 13 -3 52 1 86 10 34 9 77 16 95 16 19 0 37
5 40 10 12 19 25 10 25 -19 l0 -29 -104 -4 c-104 -3 -133 -11 -106 -28 19 -12
33 -11 -185 -19 -152 -5 -197 -10 -223 -24 -30 -17 -35 -17 -67 -2 -25 12 -49
15 -92 10 -160 -17 -239 -29 -253 -37 -10 -6 -3 -7 20 -4 19 3 82 8 140 11
128 7 106 -10 -27 -21 -48 -4 -93 -11 -100 -16 -6 -5 -22 -6 -35 -3 -14 4 -67
7 -118 8 -83 2 -94 0 -98 -16 -3 -11 -7 -14 -11 -8 -5 7 -23 5 -56 -8 -80 -30
-115 -35 -115 -17 0 22 37 39 104 47 32 4 63 13 70 19 9 10 -1 11 -43 6 -30
-4 -67 -10 -84 -13 l-30 -6 8 49 c4 27 9 51 11 53 2 3 32 7 67 9 123 8 263 20
297 26 53 10 133 16 265 22 66 3 134 9 150 14 42 12 41 12 55 -5z m433 8 c-7
-2 -21 -2 -30 0 -10 3 -4 5 12 5 17 0 24 -2 18 -5z m474 -39 c-3 -3 -12 -4
-19 -1 -8 3 -5 6 6 6 11 1 17 -2 13 -5z m-2497 -88 c0 -11 -19 -15 -25 -6 -3
5 1 10 9 10 9 0 16 -2 16 -4z m1957 -32 c-3 -3 -12 -4 -19 -1 -8 3 -5 6 6 6
11 1 17 -2 13 -5z m-1866 -27 c-10 -9 -11 -8 -5 6 3 10 9 15 12 12 3 -3 0 -11
-7 -18z m-171 -39 c0 -6 -3 -9 -6 -5 -4 3 -20 -1 -36 -9 -33 -17 -48 -12 -41
15 8 32 83 31 83 -1z m-97 6 c3 -3 3 -12 0 -20 -7 -18 -53 -18 -53 0 0 20 38
34 53 20z m152 -4 c-3 -5 -12 -10 -20 -10 -8 0 -17 5 -20 10 -4 6 5 10 20 10
15 0 24 -4 20 -10z m-225 -10 c0 -5 -9 -10 -21 -10 -11 0 -17 5 -14 10 3 6 13
10 21 10 8 0 14 -4 14 -10z m394 -19 c3 -4 3 -10 0 -13 -7 -8 -54 3 -54 13 0
12 47 12 54 0z m-467 -37 c-3 -3 -12 -4 -19 -1 -8 3 -5 6 6 6 11 1 17 -2 13
-5z m730 -116 c-3 -8 -6 -5 -6 6 -1 11 2 17 5 13 3 -3 4 -12 1 -19z m-197 8
c0 -3 -4 -8 -10 -11 -5 -3 -10 -1 -10 4 0 6 5 11 10 11 6 0 10 -2 10 -4z m-28
-30 c6 4 5 -2 -1 -15 -8 -14 -8 -21 -1 -21 6 0 15 10 20 23 6 14 9 17 9 6 1
-9 -11 -33 -25 -54 -14 -22 -27 -53 -28 -70 -2 -17 -8 -41 -15 -53 -7 -13 -11
-30 -9 -40 1 -9 -6 -30 -17 -45 -19 -29 -45 -116 -45 -150 0 -12 -6 -17 -17
-15 -18 3 -18 6 -13 123 0 11 12 36 26 57 14 20 27 42 28 50 1 7 7 23 14 34
22 41 53 134 48 143 -3 5 -3 17 1 27 4 11 8 13 11 6 2 -7 8 -9 14 -6z m-329
-13 c-7 -2 -21 -2 -30 0 -10 3 -4 5 12 5 17 0 24 -2 18 -5z m418 -60 c-12 -20
-14 -14 -5 12 4 9 9 14 11 11 3 -2 0 -13 -6 -23z m9 -53 c12 -8 11 -13 -9 -34
-13 -13 -20 -29 -17 -35 4 -7 1 -8 -8 -5 -10 4 -16 1 -16 -9 0 -8 -7 -20 -16
-27 -16 -14 -14 -7 25 82 17 41 19 42 41 28z m-70 -445 c0 -14 -4 -25 -9 -25
-4 0 -6 11 -3 25 2 14 6 25 8 25 2 0 4 -11 4 -25z m-52 -258 c-15 -45 -34
-108 -43 -139 -9 -32 -19 -58 -22 -58 -14 0 26 165 59 243 32 73 35 47 6 -46z
m-110 -327 c-13 -27 -29 -49 -35 -50 -17 0 -16 15 1 30 8 6 23 33 33 58 11 29
19 40 21 29 2 -9 -7 -39 -20 -67z m-303 -20 c-3 -5 -10 -10 -16 -10 -5 0 -9 5
-9 10 0 6 7 10 16 10 8 0 12 -4 9 -10z m11 -72 c-18 -26 -22 -17 -5 14 6 11
13 17 16 15 3 -3 -2 -16 -11 -29z m-49 -40 c-3 -8 -6 -5 -6 6 -1 11 2 17 5 13
3 -3 4 -12 1 -19z m23 -53 c-15 -39 -23 -25 -8 16 6 18 13 29 15 23 2 -6 -1
-24 -7 -39z m-54 -141 c-8 -21 -15 -34 -15 -28 -1 15 20 76 25 71 2 -2 -2 -21
-10 -43z m-136 -322 c0 -16 -6 -36 -12 -45 -12 -15 -13 -14 -12 10 2 28 13 63
20 63 2 0 4 -13 4 -28z m-43 -154 c-3 -8 -6 -5 -6 6 -1 11 2 17 5 13 3 -3 4
-12 1 -19z m6 -101 c3 -8 1 -20 -4 -28 -6 -10 -9 -7 -9 14 0 29 5 35 13 14z
m-34 -158 c-12 -59 -25 -89 -38 -89 -4 0 -6 14 -3 30 2 17 7 30 11 30 4 0 13
20 20 45 18 61 24 51 10 -16z"/>
<path d="M7480 3519 c0 -5 5 -7 10 -4 6 3 10 8 10 11 0 2 -4 4 -10 4 -5 0 -10
-5 -10 -11z"/>
<path d="M9590 4390 c0 -5 5 -10 10 -10 6 0 10 5 10 10 0 6 -4 10 -10 10 -5 0
-10 -4 -10 -10z"/>
<path d="M9152 4383 c-6 -2 -10 -8 -7 -13 6 -10 55 0 55 11 0 10 -27 11 -48 2z"/>
<path d="M9989 4374 c-11 -14 -10 -16 9 -12 13 1 23 7 23 13 1 17 -17 16 -32
-1z"/>
<path d="M9088 4373 c7 -3 16 -2 19 1 4 3 -2 6 -13 5 -11 0 -14 -3 -6 -6z"/>
<path d="M10075 4370 c-3 -5 1 -10 9 -10 8 0 18 5 21 10 3 6 -1 10 -9 10 -8 0
-18 -4 -21 -10z"/>
<path d="M7331 4201 c-9 -16 -6 -20 14 -24 31 -5 43 9 15 18 -11 4 -18 11 -15
16 4 5 4 9 1 9 -3 0 -10 -8 -15 -19z"/>
<path d="M7170 4170 c0 -5 5 -10 10 -10 6 0 10 5 10 10 0 6 -4 10 -10 10 -5 0
-10 -4 -10 -10z"/>
<path d="M3503 4096 c8 -19 -6 -21 -34 -3 -17 10 -23 9 -36 -8 -11 -14 -17
-16 -20 -7 -8 20 -38 14 -48 -10 -6 -13 -12 -21 -15 -19 -3 2 -15 -1 -27 -8
-16 -8 -23 -21 -23 -40 0 -22 -11 -38 -45 -66 -25 -20 -44 -42 -43 -48 2 -7
-48 -74 -111 -149 -63 -76 -192 -246 -287 -378 -95 -132 -174 -236 -176 -230
-1 5 -23 -23 -47 -63 -42 -68 -188 -296 -381 -597 -48 -75 -122 -196 -165
-270 -43 -74 -84 -139 -92 -143 -7 -4 -13 -15 -13 -22 0 -8 -4 -15 -9 -15 -5
0 -23 -25 -41 -56 -17 -31 -33 -54 -34 -53 -4 5 12 391 18 449 3 25 5 51 5 58
1 6 0 20 0 30 0 9 5 67 11 127 5 61 12 142 14 180 3 39 12 92 20 119 21 68 33
431 17 506 -15 71 -74 158 -121 178 -19 8 -44 19 -55 25 -130 72 -150 73 -191
16 -16 -23 -48 -60 -71 -82 -71 -66 -302 -554 -475 -1002 -17 -44 -35 -82 -40
-83 -4 -2 -6 -7 -4 -11 5 -7 -11 -52 -106 -301 -48 -127 -62 -167 -83 -245 -9
-33 -26 -85 -37 -115 -11 -30 -26 -75 -34 -100 -17 -58 -61 -190 -86 -260 -10
-30 -28 -86 -38 -125 -10 -38 -39 -131 -64 -205 -26 -74 -54 -171 -62 -215 -9
-44 -23 -88 -32 -98 -24 -27 -2 -63 47 -78 l40 -12 89 89 c71 71 93 101 110
147 12 32 22 62 22 67 0 5 6 13 13 17 13 9 47 77 47 96 0 18 46 108 52 102 3
-3 11 2 19 12 12 15 12 16 -4 10 -21 -8 -19 1 13 88 10 28 21 59 23 70 3 12 5
7 6 -13 0 -18 -6 -46 -14 -62 -14 -27 -14 -30 1 -30 13 0 15 -7 10 -34 -14
-75 -62 -198 -124 -318 -2 -5 1 -8 7 -8 13 0 61 74 61 92 0 8 8 29 19 48 10
19 22 46 26 60 4 14 29 82 56 152 27 70 49 133 49 139 0 22 -26 -9 -50 -61
-14 -29 -30 -50 -39 -50 -14 1 -14 2 1 14 10 7 15 16 11 20 -4 3 2 19 13 34
11 15 28 56 38 92 20 77 36 108 36 72 0 -12 -7 -34 -16 -47 -21 -33 -14 -48
13 -27 13 11 23 30 24 52 3 40 17 63 32 53 5 -3 7 -1 4 4 -9 14 20 98 39 114
8 6 14 23 14 36 0 14 9 38 20 53 11 16 20 32 18 37 -1 4 3 19 9 33 6 14 50
120 99 235 48 116 125 300 171 409 46 110 82 205 79 212 -3 7 0 30 7 51 11 37
11 37 19 -47 4 -47 12 -209 18 -360 21 -551 29 -674 45 -724 8 -27 15 -65 15
-85 0 -20 9 -49 20 -66 11 -16 20 -38 20 -48 0 -32 38 -74 86 -97 45 -22 46
-22 80 -4 19 10 34 22 34 26 0 5 9 8 19 8 11 0 23 5 26 10 3 6 15 10 25 10 56
0 65 13 199 291 28 58 102 193 164 300 62 107 135 235 162 284 27 50 57 101
67 115 11 14 44 66 74 115 62 101 134 199 140 192 3 -2 -12 -58 -32 -123 -20
-65 -45 -159 -55 -208 -11 -49 -22 -93 -25 -98 -3 -4 -1 -8 4 -8 5 0 14 10 21
23 l11 22 -6 -22 c-3 -13 -1 -23 4 -23 4 0 32 73 60 163 60 190 75 247 68 255
-3 3 -1 10 4 17 5 6 17 31 25 55 8 24 24 50 35 57 11 8 23 31 26 53 4 26 12
40 25 43 24 6 24 8 -5 -66 -13 -34 -26 -73 -29 -87 -15 -66 -38 -146 -77 -265
-33 -103 -130 -461 -130 -482 0 -2 -3 -2 -7 0 -5 3 -8 -16 -9 -42 -1 -25 -13
-82 -27 -126 -14 -44 -30 -116 -37 -160 -7 -44 -18 -91 -25 -105 -8 -14 -13
-32 -13 -40 3 -45 -4 -72 -23 -91 -11 -11 -18 -23 -15 -26 3 -4 1 -11 -4 -18
-5 -6 -11 -28 -12 -48 -2 -20 -7 -37 -12 -37 -4 0 -5 17 -1 38 11 57 11 76 0
84 -6 5 -3 12 9 21 10 7 19 27 20 44 1 16 7 37 14 46 8 9 11 21 8 26 -4 5 3
43 14 83 23 86 40 198 29 198 -4 0 -10 -6 -12 -12 -4 -10 -6 -10 -6 -1 -1 7 8
17 19 23 11 6 20 15 20 21 0 6 -4 7 -10 4 -17 -11 -11 11 11 39 14 18 19 36
16 53 -3 16 3 40 14 60 20 36 25 58 10 49 -5 -4 -11 0 -14 6 -2 7 -10 -7 -17
-32 -20 -74 -29 -90 -24 -45 l4 40 -13 -36 c-6 -20 -18 -43 -25 -52 -8 -9 -11
-21 -7 -27 3 -5 1 -10 -6 -10 -8 0 -9 -10 -5 -31 3 -18 2 -37 -2 -43 -13 -17
-30 -82 -47 -176 -9 -47 -22 -112 -30 -145 -7 -33 -17 -86 -20 -117 -4 -32
-10 -56 -14 -54 -3 2 -7 -7 -7 -20 -1 -15 2 -22 10 -18 6 3 3 -1 -6 -9 -15
-12 -17 -31 -17 -113 1 -54 1 -127 0 -160 -1 -34 4 -75 10 -90 7 -16 11 -33
10 -37 -1 -5 14 -26 34 -48 38 -42 47 -63 15 -34 -17 16 -20 16 -20 2 0 -16 9
-20 67 -32 18 -4 39 -15 47 -26 11 -16 18 -18 40 -9 23 9 25 12 16 31 -9 16
-8 23 4 32 9 7 21 26 26 42 l9 30 -2 -31 c-1 -26 20 -64 36 -64 2 0 15 25 28
55 13 30 27 55 31 55 5 0 8 19 8 43 0 23 7 69 15 102 8 33 15 80 15 105 0 49
23 184 40 240 6 19 17 78 26 130 8 52 22 121 30 153 8 32 12 62 9 67 -3 6 1
20 9 32 9 12 16 37 16 56 0 18 7 47 16 65 9 17 20 56 24 87 5 30 15 75 23 100
8 25 20 65 26 90 31 116 60 220 76 270 57 171 76 234 100 318 14 52 36 117 49
145 13 29 26 63 29 77 19 86 125 343 241 580 l134 275 -4 65 c-1 35 -8 66 -13
68 -6 2 -11 12 -11 23 0 23 -42 68 -48 51 -2 -7 -8 -12 -14 -12 -7 0 -6 5 1
14 8 10 9 16 1 21 -5 3 -10 14 -10 23 0 10 -10 26 -22 36 -18 15 -20 16 -15 2z
m-533 -1112 c0 -8 -5 -12 -10 -9 -6 4 -8 11 -5 16 9 14 15 11 15 -7z m60 -17
c0 -7 -7 -22 -15 -33 -13 -17 -13 -16 -3 14 13 34 18 40 18 19z m-104 -43 c-4
-12 -2 -15 9 -10 17 6 18 0 5 -29 l-9 -20 -1 20 c-1 18 -2 17 -15 -5 -18 -31
-21 -4 -3 35 12 27 24 35 14 9z m59 -110 c-12 -24 -15 -25 -15 -8 0 11 5 25
12 32 18 18 20 8 3 -24z m-5 -44 c0 -5 -2 -10 -4 -10 -3 0 -8 5 -11 10 -3 6
-1 10 4 10 6 0 11 -4 11 -10z m-10 -150 c-6 -10 -7 -26 -4 -34 4 -11 1 -16
-11 -16 -10 0 -15 -7 -13 -17 1 -10 -5 -33 -15 -52 -9 -19 -17 -43 -17 -53 0
-10 -11 -41 -25 -69 -17 -32 -24 -58 -20 -72 4 -15 3 -18 -3 -9 -12 18 -34
-64 -25 -96 6 -26 -15 -112 -29 -112 -5 0 -6 -10 -3 -21 4 -12 3 -24 -2 -28
-4 -3 -14 -28 -21 -56 -7 -27 -22 -63 -33 -80 l-20 -30 5 35 c3 19 -10 -11
-30 -68 -20 -57 -38 -101 -40 -99 -2 2 9 56 26 120 16 64 30 125 30 136 0 12
4 21 10 21 5 0 7 6 5 13 -3 6 6 46 21 87 25 73 35 113 52 204 8 41 66 146 81
146 8 0 41 71 41 89 0 6 7 23 16 36 9 14 12 25 6 25 -6 0 -8 9 -5 20 4 16 8
18 19 9 10 -8 11 -16 4 -29z m-54 -51 c-8 -49 -35 -107 -35 -74 0 11 6 31 14
45 8 14 14 35 15 48 0 12 3 22 6 22 4 0 4 -19 0 -41z m100 -25 c-4 -14 -9 -24
-12 -21 -3 2 -2 17 2 31 3 15 9 25 11 22 3 -3 2 -17 -1 -32z m-335 -271 c-9
-16 -10 -15 -11 7 0 14 4 36 8 50 7 24 7 24 10 -7 2 -18 -1 -41 -7 -50z m176
-25 c-3 -8 -6 -5 -6 6 -1 11 2 17 5 13 3 -3 4 -12 1 -19z m-50 -450 c-3 -7 -5
-2 -5 12 0 14 2 19 5 13 2 -7 2 -19 0 -25z m-10 -55 c-3 -10 -5 -4 -5 12 0 17
2 24 5 18 2 -7 2 -21 0 -30z m-77 -23 c0 -5 -5 -10 -11 -10 -5 0 -7 5 -4 10 3
6 8 10 11 10 2 0 4 -4 4 -10z m-73 -62 c-3 -7 -5 -2 -5 12 0 14 2 19 5 13 2
-7 2 -19 0 -25z m-20 -80 c-3 -8 -6 -5 -6 6 -1 11 2 17 5 13 3 -3 4 -12 1 -19z
m60 -40 c-3 -7 -5 -2 -5 12 0 14 2 19 5 13 2 -7 2 -19 0 -25z m-37 -27 c3 -1
-3 -6 -12 -12 -10 -5 -20 -25 -24 -44 -3 -19 -10 -35 -15 -35 -10 0 -12 25 -3
67 5 28 16 32 54 24z m87 -28 c-3 -10 -5 -4 -5 12 0 17 2 24 5 18 2 -7 2 -21
0 -30z m-87 -93 c0 -5 -5 -10 -11 -10 -5 0 -7 5 -4 10 3 6 8 10 11 10 2 0 4
-4 4 -10z m-73 -132 c-3 -8 -6 -5 -6 6 -1 11 2 17 5 13 3 -3 4 -12 1 -19z
m-10 -40 c-3 -8 -6 -5 -6 6 -1 11 2 17 5 13 3 -3 4 -12 1 -19z m-107 -7 c0 -6
-4 -13 -10 -16 -5 -3 -10 1 -10 9 0 9 5 16 10 16 6 0 10 -4 10 -9z m-27 -36
c4 -8 2 -17 -3 -20 -6 -4 -10 3 -10 14 0 25 6 27 13 6z m134 -57 c-3 -8 -6 -5
-6 6 -1 11 2 17 5 13 3 -3 4 -12 1 -19z"/>
<path d="M2818 2195 c-3 -11 -9 -38 -12 -60 l-5 -40 15 34 c8 18 14 45 12 60
-3 23 -4 24 -10 6z"/>
<path d="M2777 2116 c-4 -10 -5 -21 -2 -24 9 -9 17 6 13 25 -3 17 -4 17 -11
-1z"/>
<path d="M15281 3954 c0 -11 3 -14 6 -6 3 7 2 16 -1 19 -3 4 -6 -2 -5 -13z"/>
<path d="M4284 3581 c-45 -12 -54 -19 -54 -48 0 -21 -4 -24 -21 -20 -38 10
-93 -21 -134 -74 -44 -59 -125 -189 -125 -204 0 -5 -14 -30 -30 -55 -17 -25
-63 -110 -102 -190 -39 -80 -77 -149 -84 -155 -7 -5 -15 -22 -18 -36 -2 -15
-29 -68 -59 -118 -30 -51 -71 -131 -91 -179 -34 -80 -39 -87 -67 -89 -20 -2
-28 2 -24 10 4 7 0 4 -9 -6 -10 -13 -21 -17 -35 -12 -11 3 -58 -1 -103 -9 -46
-8 -104 -18 -130 -21 -27 -4 -48 -11 -48 -17 0 -6 -3 -8 -7 -5 -3 4 -12 -5
-19 -19 -12 -22 -11 -27 6 -44 11 -11 20 -26 20 -32 0 -7 14 -29 30 -48 16
-19 30 -38 30 -42 0 -5 7 -8 15 -8 9 0 18 -6 21 -14 9 -23 30 -26 79 -9 25 8
48 13 50 11 2 -2 -2 -15 -10 -28 -8 -14 -26 -50 -41 -80 -14 -30 -34 -64 -44
-75 -10 -11 -30 -47 -46 -80 -15 -33 -33 -67 -40 -75 -15 -18 -67 -150 -62
-155 12 -12 60 54 77 107 7 20 23 44 37 53 13 9 22 20 19 24 -9 15 36 104 47
93 7 -7 3 -26 -11 -57 -12 -26 -21 -53 -21 -60 0 -6 -9 -20 -20 -30 -27 -24
-83 -144 -76 -162 3 -8 1 -11 -4 -8 -6 3 -10 -3 -10 -14 0 -28 -21 -70 -48
-100 -33 -36 -26 -109 17 -173 35 -52 47 -53 92 -11 14 13 27 22 30 21 2 -2
-2 2 -9 9 -17 15 -8 48 24 86 13 16 24 33 24 38 0 6 7 17 15 25 8 9 15 26 15
39 0 13 10 29 25 39 14 9 24 20 24 24 -4 24 3 42 16 42 8 0 15 4 15 9 0 13
121 215 131 219 5 2 9 11 9 20 1 18 152 293 187 339 11 16 24 25 28 21 5 -5 0
-17 -9 -27 -10 -11 -16 -25 -14 -32 2 -7 15 7 29 32 17 31 31 45 49 47 14 1
50 9 80 17 30 8 90 18 133 23 l79 8 -8 -35 c-19 -98 -21 -111 -13 -111 4 0 2
-15 -6 -32 -21 -51 -29 -124 -15 -133 17 -10 31 14 29 50 0 17 -1 36 0 43 1
18 21 15 21 -4 0 -8 5 -12 10 -9 15 10 12 -8 -7 -35 -10 -14 -16 -25 -14 -25
7 0 -12 -101 -22 -113 -5 -7 -7 -16 -3 -20 4 -4 13 1 20 11 20 26 25 21 19
-23 -4 -30 -2 -40 8 -40 9 0 10 -3 3 -8 -14 -9 -38 -98 -30 -110 3 -6 1 -12
-6 -14 -7 -3 -8 -9 -3 -18 6 -10 11 -8 18 11 6 13 9 29 8 34 -1 6 3 4 10 -2
10 -10 9 -18 -7 -40 -21 -28 -28 -49 -44 -137 -5 -26 -16 -53 -25 -60 -11 -8
-18 -32 -20 -74 -2 -35 -14 -83 -26 -110 -12 -26 -21 -63 -21 -82 1 -19 -1
-29 -4 -22 -8 17 -24 5 -24 -19 0 -22 11 -24 28 -7 9 9 12 4 12 -25 0 -20 -5
-37 -11 -37 -5 0 -7 -5 -4 -10 3 -6 1 -10 -5 -10 -6 0 -8 -5 -5 -10 4 -6 10
-8 15 -5 5 3 8 -8 8 -24 -1 -17 -5 -28 -10 -25 -4 3 -8 1 -8 -5 0 -5 5 -13 10
-16 8 -5 7 -12 -2 -22 -14 -18 -19 -173 -5 -173 4 0 3 -9 -3 -19 -12 -23 -3
-51 16 -51 20 0 17 -24 -6 -45 -18 -16 -18 -19 -4 -30 13 -9 14 -16 5 -32 -14
-28 -3 -81 19 -93 10 -6 38 -8 61 -7 39 3 44 6 44 27 0 18 6 25 20 25 11 0 20
6 20 13 0 7 5 16 10 20 6 4 16 20 23 36 10 23 10 31 0 43 -7 9 -14 41 -15 72
-1 31 -5 99 -8 151 -8 142 -6 236 5 308 6 36 11 86 10 111 0 74 12 175 22 188
6 7 8 19 5 27 -3 7 1 31 8 52 8 22 15 66 16 99 0 33 5 71 10 85 6 17 7 1 5
-52 -2 -46 1 -78 7 -78 5 0 3 -10 -5 -22 -8 -13 -18 -43 -21 -68 -3 -25 -9
-55 -13 -67 -4 -14 -2 -23 5 -23 6 0 11 12 11 27 0 14 2 24 5 22 2 -3 0 -90
-5 -194 -6 -105 -13 -284 -16 -400 -6 -201 -6 -211 14 -233 11 -13 23 -19 26
-14 3 5 4 129 2 276 -2 147 1 269 5 272 12 7 11 42 -1 46 -6 2 -3 39 9 100 10
53 17 109 15 125 -2 15 -1 20 2 10 3 -9 9 -15 12 -13 14 8 2 -197 -15 -258 -4
-13 -1 -16 8 -11 9 6 11 4 6 -7 -3 -9 -3 -19 1 -23 10 -10 8 -39 -2 -47 -14
-9 -19 -58 -6 -58 5 0 10 -9 10 -21 0 -12 -4 -17 -11 -13 -8 4 -8 1 -1 -12 5
-11 13 -39 17 -64 6 -42 6 -44 -9 -25 -14 19 -15 16 -14 -45 0 -36 3 -52 5
-37 3 19 9 27 18 23 17 -6 39 46 32 80 -2 14 0 78 5 142 5 65 13 169 17 232 5
63 14 147 20 185 5 39 22 156 36 260 14 105 31 208 36 229 6 22 15 81 19 131
10 105 16 122 38 129 10 3 79 13 154 21 132 14 248 45 248 66 0 5 9 9 19 9 11
0 21 6 24 13 2 7 10 0 18 -16 10 -22 10 -33 1 -47 -16 -26 5 -38 24 -14 9 11
13 14 10 7 -4 -6 -2 -14 4 -18 5 -3 10 -11 10 -16 0 -6 -4 -8 -8 -5 -11 6 -9
-25 2 -43 15 -24 128 -90 165 -97 20 -4 41 -11 48 -16 7 -6 50 -12 95 -15 46
-3 89 -9 96 -12 14 -8 -89 -96 -146 -125 -18 -9 -32 -21 -32 -27 0 -6 -4 -8
-8 -5 -10 6 -37 -17 -68 -55 -10 -13 -31 -30 -46 -36 -16 -7 -28 -19 -28 -28
0 -8 -4 -15 -8 -15 -20 0 -89 -71 -109 -111 -12 -24 -30 -53 -40 -65 -10 -11
-27 -36 -37 -55 -11 -19 -30 -54 -44 -79 -14 -25 -34 -55 -45 -68 -25 -27 -47
-86 -47 -127 0 -16 -7 -41 -15 -55 -8 -14 -17 -32 -21 -40 -3 -8 -13 -30 -21
-48 -16 -36 -19 -80 -8 -127 3 -16 6 -50 6 -74 -1 -35 2 -42 15 -37 9 3 18 6
20 6 2 0 4 12 4 27 0 33 17 20 22 -17 2 -17 9 -25 21 -24 9 1 17 -4 17 -12 0
-8 10 -14 26 -14 19 0 25 -4 21 -15 -6 -14 8 -29 28 -30 21 -2 70 -18 82 -27
7 -5 14 -5 18 2 3 5 -2 10 -11 10 -13 0 -15 3 -7 11 14 14 33 3 33 -17 0 -13
13 -15 87 -10 49 3 89 10 91 15 2 5 11 7 21 4 26 -7 219 76 327 140 126 75
513 349 649 461 243 199 447 395 488 470 12 21 28 48 34 60 8 14 11 39 7 71
-4 28 -7 62 -7 77 0 15 -4 25 -8 22 -5 -3 -6 2 -2 12 4 11 -6 28 -31 53 -20
20 -48 48 -63 63 -15 15 -40 30 -56 34 -16 3 -38 15 -48 25 -11 11 -24 17 -30
13 -6 -3 -19 2 -30 12 -11 9 -27 18 -37 19 -43 4 -109 18 -126 27 -17 9 -243
16 -718 21 -86 1 -159 5 -163 9 -9 8 93 153 139 197 20 19 36 38 36 43 0 14
87 93 136 123 27 16 75 52 106 80 63 56 201 147 294 193 152 76 339 142 405
142 23 0 26 -41 4 -60 -8 -7 -15 -19 -15 -27 0 -22 -115 -169 -195 -250 -39
-40 -77 -78 -83 -86 -28 -34 43 -124 112 -141 22 -5 37 -1 65 17 20 13 53 29
73 36 21 7 40 16 43 21 3 5 38 24 78 43 39 19 81 44 91 56 11 12 31 21 48 21
70 0 207 215 209 331 2 94 -55 179 -174 257 -26 18 -55 32 -63 32 -7 0 -14 5
-14 11 0 6 -7 9 -14 6 -10 -4 -13 -1 -10 8 5 13 -33 42 -50 37 -4 -2 -45 11
-91 28 -81 31 -83 31 -135 16 -29 -9 -63 -13 -77 -10 -16 4 -31 0 -44 -12 -14
-12 -22 -15 -27 -7 -10 16 -315 -117 -346 -150 -16 -17 -31 -25 -41 -21 -9 4
-25 -2 -35 -11 -11 -10 -23 -15 -27 -12 -3 4 -12 -2 -20 -13 -7 -10 -40 -33
-73 -51 -32 -17 -73 -44 -91 -60 -18 -16 -39 -29 -46 -29 -7 0 -13 -5 -13 -10
0 -6 -12 -15 -26 -20 -16 -7 -24 -16 -21 -24 6 -16 -22 -46 -43 -46 -7 0 -10
-3 -7 -7 4 -3 -22 -37 -58 -74 -58 -60 -77 -89 -59 -89 3 0 17 9 31 20 14 11
31 20 39 20 7 0 21 18 31 40 12 27 26 41 44 45 15 3 51 24 80 45 28 22 61 42
71 46 12 3 17 12 14 20 -3 9 -1 12 4 9 6 -3 13 0 16 8 6 17 44 30 44 15 0 -5
13 0 29 11 16 12 39 21 51 21 11 0 18 5 15 10 -3 6 1 10 10 10 8 0 24 5 34 12
15 9 25 9 43 0 13 -7 15 -10 6 -8 -10 3 -18 1 -18 -5 0 -6 -6 -17 -14 -25 -11
-10 -15 -11 -19 -1 -3 9 -9 7 -24 -5 -11 -10 -29 -18 -40 -18 -12 0 -44 -25
-77 -61 -46 -49 -62 -60 -81 -56 -13 2 -23 1 -22 -3 4 -14 -48 -77 -95 -115
-28 -22 -55 -50 -61 -62 -6 -13 -16 -23 -23 -23 -6 0 -14 -7 -18 -15 -3 -8
-17 -20 -31 -25 -14 -5 -25 -14 -25 -20 0 -5 -6 -10 -13 -10 -19 0 -51 -37
-76 -87 -11 -23 -28 -46 -37 -51 -8 -5 -21 -19 -27 -32 -7 -12 -15 -21 -18
-19 -3 2 -13 -2 -22 -10 -15 -12 -17 -11 -17 3 0 9 4 16 9 16 5 0 13 12 19 28
5 15 34 54 65 87 31 33 51 62 44 64 -6 2 -28 -16 -49 -40 -21 -24 -38 -40 -38
-35 0 14 41 80 59 94 14 11 13 12 -4 10 -11 -2 -24 -6 -30 -9 -5 -4 -22 -6
-37 -5 -15 1 -25 0 -23 -2 7 -7 -48 -106 -66 -119 -9 -7 -22 -26 -29 -43 -7
-16 -16 -30 -21 -30 -5 0 -9 -13 -9 -29 0 -28 -22 -48 -45 -41 -54 15 -75 17
-75 6 0 -8 -2 -8 -8 0 -11 18 -109 23 -212 12 -110 -13 -155 -6 -145 20 3 9
11 69 16 132 13 160 32 308 45 360 3 14 7 43 9 65 3 51 12 99 25 139 5 18 10
43 9 56 0 14 2 41 6 61 4 22 2 52 -8 80 -15 44 -15 44 -93 67 -86 25 -201 36
-250 23z m1923 -58 c-9 -9 -20 -13 -24 -9 -4 4 -1 11 7 16 25 16 35 11 17 -7z
m48 -13 c-3 -5 0 -10 7 -10 8 0 6 -5 -5 -11 -10 -6 -23 -8 -30 -5 -7 2 -5 5 5
5 11 1 15 6 12 16 -4 8 -1 15 6 15 6 0 8 -4 5 -10z m82 4 c-3 -3 -12 -4 -19
-1 -8 3 -5 6 6 6 11 1 17 -2 13 -5z m-187 -44 c0 -5 -10 -10 -22 -10 -19 0
-20 2 -8 10 19 13 30 13 30 0z m-105 -40 c-3 -5 -12 -10 -18 -10 -7 0 -6 4 3
10 19 12 23 12 15 0z m-55 -25 c-7 -8 -22 -14 -34 -14 -20 1 -20 2 -1 6 11 3
24 9 30 14 15 14 19 10 5 -6z m-50 -119 c0 -2 -13 -6 -29 -8 -17 -2 -28 -1
-25 4 5 8 54 12 54 4z m-245 -16 c-10 -17 -45 -32 -45 -20 0 6 10 15 23 20 29
12 29 12 22 0z m-105 -250 c0 -5 -5 -10 -11 -10 -5 0 -7 5 -4 10 3 6 8 10 11
10 2 0 4 -4 4 -10z m-1435 -147 c-4 -38 -6 -95 -5 -128 2 -73 -20 -217 -34
-227 -7 -5 -6 -11 4 -18 11 -7 11 -10 2 -10 -7 0 -11 -4 -7 -9 6 -11 -72 -25
-101 -19 -16 3 -13 8 16 27 19 13 26 20 15 16 -11 -4 -25 -8 -32 -8 -7 0 -10
-4 -8 -8 3 -3 -2 -12 -10 -19 -8 -7 -15 -9 -15 -5 0 4 -6 3 -12 -2 -13 -10
-78 -26 -78 -19 0 29 43 51 52 27 2 -5 14 -1 27 10 17 14 19 19 8 19 -9 0 -18
-4 -22 -10 -12 -20 -35 2 -29 29 5 25 5 25 -10 7 -9 -11 -16 -26 -16 -33 0 -7
-7 -13 -16 -13 -11 0 -14 -6 -9 -20 4 -11 2 -20 -4 -20 -12 0 -15 29 -5 54 3
9 11 13 17 9 6 -4 8 0 4 10 -3 9 1 24 11 33 9 10 17 22 17 27 0 5 10 16 23 25
21 14 22 13 16 -4 -4 -14 -1 -13 15 6 11 14 21 32 21 40 0 8 7 23 15 33 7 11
11 26 8 35 -4 9 -2 13 4 9 5 -3 16 6 24 21 8 15 20 34 28 42 8 8 30 48 48 88
19 39 36 72 40 72 3 0 3 -30 -2 -67z m-485 -407 c0 -3 -4 -8 -10 -11 -5 -3
-10 -1 -10 4 0 6 5 11 10 11 6 0 10 -2 10 -4z m1100 -26 c-8 -5 -19 -10 -25
-10 -5 0 -3 5 5 10 8 5 20 10 25 10 6 0 3 -5 -5 -10z m230 -10 c0 -5 -4 -10
-10 -10 -5 0 -10 5 -10 10 0 6 5 10 10 10 6 0 10 -4 10 -10z m-270 -11 c0 -3
-18 -11 -39 -17 -21 -7 -74 -28 -116 -47 -43 -20 -79 -34 -81 -32 -2 2 -1 17
2 34 5 28 11 31 87 50 78 19 147 25 147 12z m-566 -125 c-5 -27 -4 -35 5 -30
6 4 11 2 11 -3 0 -6 -4 -11 -9 -11 -5 0 -7 -17 -4 -39 6 -44 -13 -114 -29
-105 -6 4 -7 21 -2 43 4 20 8 59 9 86 1 28 5 58 9 68 5 10 4 17 -3 17 -6 0
-11 -5 -11 -12 0 -6 -3 -9 -6 -5 -9 9 5 27 22 27 12 0 13 -8 8 -36z m2436 -44
c0 -5 -2 -10 -4 -10 -3 0 -8 5 -11 10 -3 6 -1 10 4 10 6 0 11 -4 11 -10z
m-1437 -47 c-7 -2 -19 -2 -25 0 -7 3 -2 5 12 5 14 0 19 -2 13 -5z m-1647 -40
c-8 -16 -24 -41 -35 -58 -12 -16 -21 -37 -21 -46 0 -9 -7 -19 -15 -22 -18 -8
-9 19 35 97 32 55 64 82 36 29z m764 -28 c0 -8 -2 -15 -4 -15 -2 0 -6 7 -10
15 -3 8 -1 15 4 15 6 0 10 -7 10 -15z m2004 3 c-4 -7 -31 -43 -61 -80 -65 -80
-149 -161 -300 -286 -61 -51 -113 -97 -115 -102 -2 -4 -32 -27 -67 -50 -35
-23 -66 -51 -68 -61 -3 -10 -9 -17 -13 -14 -11 7 -40 -5 -40 -16 0 -4 8 -6 18
-2 25 8 -45 -43 -105 -78 -35 -20 -53 -37 -53 -49 0 -21 -36 -44 -87 -55 -18
-3 -36 -12 -40 -19 -11 -18 -67 -46 -131 -66 -29 -9 -53 -20 -53 -23 1 -4 1
-16 1 -27 0 -16 7 -20 31 -20 17 0 40 5 51 11 15 8 19 8 14 0 -4 -6 -2 -11 4
-11 23 0 -27 -38 -60 -45 -37 -8 -93 -48 -83 -59 4 -3 1 -6 -5 -6 -7 0 -12 -7
-12 -15 0 -19 -29 -20 -36 0 -6 16 28 54 66 72 24 12 23 12 -11 7 -53 -8 -63
9 -49 85 13 73 43 163 70 208 22 38 25 53 10 53 -6 0 -15 -11 -20 -25 -5 -14
-15 -25 -21 -25 -9 0 -8 4 0 14 9 10 9 15 1 18 -7 2 2 20 19 42 17 21 31 40
31 42 0 12 -33 -13 -55 -43 -15 -19 -29 -32 -32 -29 -3 3 0 12 7 21 8 9 11 30
7 54 -7 52 39 148 103 216 21 22 41 50 44 61 4 12 22 38 41 59 19 20 35 39 35
43 0 4 35 44 78 88 80 85 112 101 161 83 13 -6 32 -7 40 -3 9 3 54 8 101 10
47 2 144 11 215 18 176 18 379 20 369 4z m-2863 -45 c-8 -15 -10 -15 -11 -2 0
17 10 32 18 25 2 -3 -1 -13 -7 -23z m853 -115 c-4 -62 -10 -122 -14 -133 -14
-35 -23 26 -11 71 6 22 13 69 17 107 11 106 16 78 8 -45z m-880 55 c-8 -30
-54 -113 -54 -97 0 14 19 73 33 102 15 31 29 28 21 -5z m990 -90 c-10 -40 -14
-41 -14 -5 0 18 5 32 10 32 6 0 8 -11 4 -27z m-254 1 c0 -8 -5 -12 -10 -9 -6
4 -8 11 -5 16 9 14 15 11 15 -7z m-770 -75 c-7 -11 -14 -18 -17 -15 -8 8 5 36
17 36 7 0 7 -6 0 -21z m1000 -81 c-7 -32 -17 -61 -21 -64 -9 -5 -6 22 10 96 6
25 11 50 12 55 1 6 4 1 6 -9 3 -11 -1 -46 -7 -78z m-205 -130 c-22 -209 -32
-352 -29 -398 3 -30 5 -66 5 -80 0 -14 0 -38 -1 -53 0 -16 -2 -32 -5 -38 -11
-16 -13 -214 -3 -226 5 -7 7 -26 3 -44 l-7 -31 -20 33 c-14 23 -17 38 -11 49
5 8 8 44 6 80 -1 36 -2 90 -2 120 1 30 1 68 0 85 0 16 3 32 8 35 5 3 11 86 15
185 3 99 10 198 16 220 5 22 10 55 10 73 0 17 4 32 10 32 5 0 7 -19 5 -42z
m176 8 c13 8 10 -54 -6 -101 -13 -40 -13 -40 -13 40 1 44 3 74 5 67 3 -6 9
-10 14 -6z m-1131 -96 c0 -5 -5 -10 -11 -10 -5 0 -7 5 -4 10 3 6 8 10 11 10 2
0 4 -4 4 -10z m2564 -161 c-16 -17 -45 -38 -64 -46 -19 -9 -52 -31 -73 -50
-22 -19 -41 -32 -44 -29 -10 10 18 35 81 73 33 20 75 47 91 60 41 31 44 29 9
-8z m-968 -35 c-8 -21 -15 -31 -15 -22 -1 18 20 70 26 65 2 -2 -3 -21 -11 -43z
m704 -114 c-14 -11 -34 -20 -45 -20 -15 0 -10 5 15 19 46 25 61 25 30 1z
m-120 -19 c0 -14 -26 -32 -35 -23 -5 4 -5 1 -1 -5 4 -7 2 -13 -3 -13 -6 0 -11
4 -11 9 0 4 -11 6 -25 3 -33 -6 -32 4 3 22 30 17 72 21 72 7z m50 -21 c0 -5
-7 -10 -16 -10 -8 0 -12 5 -9 10 3 6 10 10 16 10 5 0 9 -4 9 -10z m-61 -42
c-8 -5 -44 -26 -81 -48 -37 -22 -82 -43 -100 -46 -31 -6 -32 -6 -16 11 9 10
26 19 36 20 11 0 34 13 52 28 17 15 39 27 48 27 9 0 28 9 42 20 17 13 26 15
29 7 2 -6 -2 -15 -10 -19z m-588 -149 c-9 -22 -10 -22 -10 -3 -1 11 2 24 6 27
12 12 14 0 4 -24z"/>
<path d="M5425 1370 c-3 -6 1 -7 9 -4 18 7 21 14 7 14 -6 0 -13 -4 -16 -10z"/>
<path d="M8678 3482 c-18 -8 -39 -14 -46 -13 -19 3 -45 -15 -48 -33 -1 -9 2
-16 7 -16 5 0 9 7 9 15 0 8 5 15 10 15 17 0 11 -18 -12 -34 -24 -17 -39 -20
-37 -8 5 29 -2 34 -21 17 -12 -11 -27 -20 -35 -21 -15 -2 -52 -34 -39 -34 3 0
1 -7 -6 -15 -10 -11 -22 -14 -44 -9 -26 6 -29 5 -18 -8 10 -12 7 -20 -13 -42
-13 -14 -30 -26 -38 -26 -8 0 -31 -18 -51 -40 -20 -22 -40 -40 -45 -40 -5 0
-12 -7 -15 -16 -4 -10 -14 -14 -26 -11 -18 5 -42 -20 -62 -63 -5 -11 -7 -11
-7 -2 -1 14 -51 -44 -123 -141 -21 -27 -38 -46 -38 -41 0 5 -7 -2 -16 -15 -16
-22 -16 -24 0 -33 16 -9 16 -11 -3 -27 -12 -10 -21 -23 -21 -29 0 -6 -9 -16
-19 -22 -11 -5 -23 -20 -26 -31 -6 -17 -9 -19 -17 -8 -8 11 -9 10 -4 -4 6 -18
-88 -219 -105 -225 -5 -2 -9 -11 -9 -21 0 -9 -7 -26 -15 -37 -8 -12 -11 -24
-8 -28 3 -3 2 -6 -4 -6 -6 0 -16 -35 -22 -77 -7 -43 -15 -88 -18 -100 -10 -42
14 -24 32 25 41 106 115 242 145 263 16 13 30 30 30 39 0 9 15 30 33 47 17 16
41 41 52 55 11 14 25 23 32 21 7 -3 27 16 44 41 36 51 49 55 25 7 -30 -57 -17
-64 22 -12 20 28 42 49 49 46 10 -3 57 41 80 77 4 7 22 20 38 28 17 9 44 37
60 63 18 28 37 47 49 47 10 0 36 16 57 35 22 19 46 35 55 35 8 0 30 10 47 23
42 29 62 41 127 75 30 16 82 43 114 61 64 34 125 41 150 16 8 -8 21 -15 28
-15 16 0 71 -88 92 -148 9 -24 14 -56 12 -72 -2 -16 -1 -32 2 -35 3 -3 7 -12
8 -20 1 -8 5 -33 9 -55 4 -22 3 -40 -2 -40 -5 0 -7 -60 -5 -135 4 -151 -30
-447 -55 -476 -7 -8 -13 -24 -13 -35 0 -27 -66 -213 -83 -233 -7 -9 -27 -45
-45 -81 -72 -150 -315 -435 -409 -479 -31 -15 -35 -17 -108 -61 -96 -58 -193
-66 -226 -20 -10 14 -32 88 -49 165 -26 119 -30 152 -24 215 15 167 74 315
165 414 46 50 48 51 79 39 40 -15 61 -6 90 42 12 19 26 35 31 35 5 0 9 6 9 13
0 7 16 29 35 47 49 47 46 86 -9 116 -33 19 -54 22 -140 22 -56 -1 -120 5 -144
12 -53 16 -168 -1 -207 -32 -30 -24 -34 -43 -5 -28 32 17 42 3 24 -33 -25 -49
-94 -138 -103 -133 -5 3 -17 -4 -27 -15 -9 -11 -27 -18 -38 -17 -19 3 -24 -9
-49 -102 -58 -223 -68 -364 -37 -530 6 -30 13 -79 15 -107 5 -62 19 -91 74
-158 23 -28 51 -70 63 -94 41 -85 191 -153 363 -166 87 -7 95 -5 213 33 126
41 247 105 281 148 11 13 26 24 35 24 8 0 20 9 26 20 5 10 35 43 66 72 131
123 310 388 391 578 84 197 108 287 143 555 17 132 9 422 -11 409 -4 -2 -13 4
-18 15 -14 25 -14 34 -1 26 16 -10 12 88 -6 161 -12 46 -20 62 -27 55 -8 -8
-7 -25 2 -59 17 -62 18 -66 7 -72 -6 -3 -27 35 -48 84 -58 137 -77 173 -121
229 l-41 52 39 -31 c36 -29 63 -66 127 -173 18 -31 21 -33 30 -18 21 39 -98
210 -162 232 -20 7 -58 26 -85 43 -78 47 -174 70 -287 69 -63 0 -109 -6 -130
-15z m245 -24 c-6 -11 -31 -10 -37 1 -3 5 5 8 18 7 13 0 22 -4 19 -8z m-98
-18 c-28 -12 -47 -12 -40 0 3 6 18 10 33 9 24 0 25 -1 7 -9z m-331 -74 c-9
-15 -19 -24 -22 -22 -2 3 3 17 12 32 10 14 20 23 23 21 2 -3 -3 -17 -13 -31z
m-48 -61 c-11 -8 -22 -12 -25 -9 -6 6 19 24 34 24 6 -1 1 -7 -9 -15z m134 5
c0 -5 -15 -17 -32 -26 -18 -9 -42 -25 -53 -35 -13 -11 -25 -15 -34 -10 -10 7
-7 13 13 27 15 11 37 27 49 36 24 19 57 24 57 8z m-220 -185 c-47 -47 -91 -91
-98 -98 -8 -7 -30 -28 -49 -47 l-36 -35 29 42 c16 23 37 44 47 46 10 3 17 15
17 30 0 26 22 52 34 40 8 -9 56 45 56 64 0 7 4 13 10 13 5 0 7 -8 3 -17 -3
-11 7 -5 28 15 18 17 36 32 39 32 3 0 -33 -38 -80 -85z m814 -37 c3 -13 6 -31
6 -42 0 -15 -3 -16 -15 -6 -16 13 -21 70 -6 70 5 0 11 -10 15 -22z m-1035 -47
c-23 -22 -38 -41 -33 -41 5 0 0 -7 -10 -15 -11 -8 -16 -15 -12 -15 10 0 -16
-26 -29 -29 -5 -1 -18 -16 -29 -32 -10 -17 -21 -27 -24 -24 -3 2 2 13 11 23
10 10 17 24 17 30 0 7 6 12 13 12 8 0 14 6 14 13 0 24 64 109 78 103 8 -3 19
2 26 10 6 8 14 13 16 10 2 -2 -15 -22 -38 -45z m1150 -197 c2 -72 -12 -170
-20 -149 -4 11 -5 32 -2 46 3 14 0 50 -5 80 -6 30 -8 75 -4 100 l6 44 12 -40
c7 -22 13 -58 13 -81z m-82 74 c-3 -7 -5 -2 -5 12 0 14 2 19 5 13 2 -7 2 -19
0 -25z m-1073 -37 c-15 -23 -31 -41 -35 -41 -16 0 -10 17 14 41 13 13 27 33
31 44 5 12 10 15 13 8 2 -6 -8 -30 -23 -52z m1056 9 c6 9 10 10 10 3 0 -6 -4
-14 -9 -18 -5 -3 -8 -53 -6 -111 2 -67 0 -103 -6 -97 -5 5 -11 61 -14 123 -2
73 0 109 6 99 8 -12 10 -12 19 1z m48 -205 c2 -116 0 -160 -12 -195 l-16 -45
4 48 c3 35 0 47 -10 47 -16 0 -19 47 -4 70 7 11 10 5 10 -25 1 -33 2 -37 11
-22 12 21 2 97 -13 97 -5 0 -8 8 -7 18 2 9 -1 27 -5 39 -5 15 -2 30 7 43 10
14 13 37 10 68 -4 41 -3 45 9 27 8 -13 14 -70 16 -170z m-1195 75 c-3 -10 -11
-25 -19 -31 -17 -14 -18 -8 -2 26 13 30 28 34 21 5z m1234 -147 c-3 -10 -5 -2
-5 17 0 19 2 27 5 18 2 -10 2 -26 0 -35z m-67 -249 c0 -45 -4 -94 -9 -119 -1
-5 -7 1 -12 15 -9 22 6 168 17 158 2 -2 4 -26 4 -54z"/>
<path d="M12278 3422 c-18 -8 -39 -14 -46 -13 -19 3 -45 -15 -48 -33 -1 -9 2
-16 7 -16 5 0 9 7 9 15 0 8 5 15 10 15 17 0 11 -18 -12 -34 -24 -17 -39 -20
-37 -8 5 29 -2 34 -21 17 -12 -11 -27 -20 -35 -21 -15 -2 -52 -34 -39 -34 3 0
1 -7 -6 -15 -10 -11 -22 -14 -44 -9 -26 6 -29 5 -18 -8 10 -12 7 -20 -13 -42
-13 -14 -30 -26 -38 -26 -8 0 -31 -18 -51 -40 -20 -22 -40 -40 -45 -40 -5 0
-12 -7 -15 -16 -4 -10 -14 -14 -26 -11 -18 5 -42 -20 -62 -63 -5 -11 -7 -11
-7 -2 -1 14 -51 -44 -123 -141 -21 -27 -38 -46 -38 -41 0 5 -7 -2 -16 -15 -16
-22 -16 -24 0 -33 16 -9 16 -11 -3 -27 -12 -10 -21 -23 -21 -29 0 -6 -9 -16
-19 -22 -11 -5 -23 -20 -26 -31 -6 -17 -9 -19 -17 -8 -8 11 -9 10 -4 -4 6 -18
-88 -219 -105 -225 -5 -2 -9 -11 -9 -21 0 -9 -7 -26 -15 -37 -8 -12 -11 -24
-8 -28 3 -3 2 -6 -4 -6 -6 0 -16 -35 -22 -77 -7 -43 -15 -88 -18 -100 -10 -42
14 -24 32 25 41 106 115 242 145 263 16 13 30 30 30 39 0 9 15 30 33 47 17 16
41 41 52 55 11 14 25 23 32 21 7 -3 27 16 44 41 36 51 49 55 25 7 -30 -57 -17
-64 22 -12 20 28 42 49 49 46 10 -3 57 41 80 77 4 7 22 20 38 28 17 9 44 37
60 63 18 28 37 47 49 47 10 0 36 16 57 35 22 19 46 35 55 35 8 0 30 10 47 23
42 29 62 41 127 75 30 16 82 43 114 61 64 34 125 41 150 16 8 -8 21 -15 28
-15 16 0 71 -88 92 -148 9 -24 14 -56 12 -72 -2 -16 -1 -32 2 -35 3 -3 7 -12
8 -20 1 -8 5 -33 9 -55 4 -22 3 -40 -2 -40 -5 0 -7 -60 -5 -135 4 -151 -30
-447 -55 -476 -7 -8 -13 -24 -13 -35 0 -27 -66 -213 -83 -233 -7 -9 -27 -45
-45 -81 -72 -150 -315 -435 -409 -479 -31 -15 -35 -17 -108 -61 -96 -58 -193
-66 -226 -20 -10 14 -32 88 -49 165 -26 119 -30 152 -24 215 15 167 74 315
165 414 46 50 48 51 79 39 40 -15 61 -6 90 42 12 19 26 35 31 35 5 0 9 6 9 13
0 7 16 29 35 47 49 47 46 86 -9 116 -33 19 -54 22 -140 22 -56 -1 -120 5 -144
12 -53 16 -168 -1 -207 -32 -30 -24 -34 -43 -5 -28 32 17 42 3 24 -33 -25 -49
-94 -138 -103 -133 -5 3 -17 -4 -27 -15 -9 -11 -27 -18 -38 -17 -19 3 -24 -9
-49 -102 -58 -223 -68 -364 -37 -530 6 -30 13 -79 15 -107 5 -62 19 -91 74
-158 23 -28 51 -70 63 -94 41 -85 191 -153 363 -166 87 -7 95 -5 213 33 126
41 247 105 281 148 11 13 26 24 35 24 8 0 20 9 26 20 5 10 35 43 66 72 131
123 310 388 391 578 84 197 108 287 143 555 17 132 9 422 -11 409 -4 -2 -13 4
-18 15 -14 25 -14 34 -1 26 16 -10 12 88 -6 161 -12 46 -20 62 -27 55 -8 -8
-7 -25 2 -59 17 -62 18 -66 7 -72 -6 -3 -27 35 -48 84 -58 137 -77 173 -121
229 l-41 52 39 -31 c36 -29 63 -66 127 -173 18 -31 21 -33 30 -18 21 39 -98
210 -162 232 -20 7 -58 26 -85 43 -78 47 -174 70 -287 69 -63 0 -109 -6 -130
-15z m245 -24 c-6 -11 -31 -10 -37 1 -3 5 5 8 18 7 13 0 22 -4 19 -8z m-98
-18 c-28 -12 -47 -12 -40 0 3 6 18 10 33 9 24 0 25 -1 7 -9z m-331 -74 c-9
-15 -19 -24 -22 -22 -2 3 3 17 12 32 10 14 20 23 23 21 2 -3 -3 -17 -13 -31z
m-48 -61 c-11 -8 -22 -12 -25 -9 -6 6 19 24 34 24 6 -1 1 -7 -9 -15z m134 5
c0 -5 -15 -17 -32 -26 -18 -9 -42 -25 -53 -35 -13 -11 -25 -15 -34 -10 -10 7
-7 13 13 27 15 11 37 27 49 36 24 19 57 24 57 8z m-220 -185 c-47 -47 -91 -91
-98 -98 -8 -7 -30 -28 -49 -47 l-36 -35 29 42 c16 23 37 44 47 46 10 3 17 15
17 30 0 26 22 52 34 40 8 -9 56 45 56 64 0 7 4 13 10 13 5 0 7 -8 3 -17 -3
-11 7 -5 28 15 18 17 36 32 39 32 3 0 -33 -38 -80 -85z m814 -37 c3 -13 6 -31
6 -42 0 -15 -3 -16 -15 -6 -16 13 -21 70 -6 70 5 0 11 -10 15 -22z m-1035 -47
c-23 -22 -38 -41 -33 -41 5 0 0 -7 -10 -15 -11 -8 -16 -15 -12 -15 10 0 -16
-26 -29 -29 -5 -1 -18 -16 -29 -32 -10 -17 -21 -27 -24 -24 -3 2 2 13 11 23
10 10 17 24 17 30 0 7 6 12 13 12 8 0 14 6 14 13 0 24 64 109 78 103 8 -3 19
2 26 10 6 8 14 13 16 10 2 -2 -15 -22 -38 -45z m1150 -197 c2 -72 -12 -170
-20 -149 -4 11 -5 32 -2 46 3 14 0 50 -5 80 -6 30 -8 75 -4 100 l6 44 12 -40
c7 -22 13 -58 13 -81z m-82 74 c-3 -7 -5 -2 -5 12 0 14 2 19 5 13 2 -7 2 -19
0 -25z m-1073 -37 c-15 -23 -31 -41 -35 -41 -16 0 -10 17 14 41 13 13 27 33
31 44 5 12 10 15 13 8 2 -6 -8 -30 -23 -52z m1056 9 c6 9 10 10 10 3 0 -6 -4
-14 -9 -18 -5 -3 -8 -53 -6 -111 2 -67 0 -103 -6 -97 -5 5 -11 61 -14 123 -2
73 0 109 6 99 8 -12 10 -12 19 1z m48 -205 c2 -116 0 -160 -12 -195 l-16 -45
4 48 c3 35 0 47 -10 47 -16 0 -19 47 -4 70 7 11 10 5 10 -25 1 -33 2 -37 11
-22 12 21 2 97 -13 97 -5 0 -8 8 -7 18 2 9 -1 27 -5 39 -5 15 -2 30 7 43 10
14 13 37 10 68 -4 41 -3 45 9 27 8 -13 14 -70 16 -170z m-1195 75 c-3 -10 -11
-25 -19 -31 -17 -14 -18 -8 -2 26 13 30 28 34 21 5z m1234 -147 c-3 -10 -5 -2
-5 17 0 19 2 27 5 18 2 -10 2 -26 0 -35z m-67 -249 c0 -45 -4 -94 -9 -119 -1
-5 -7 1 -12 15 -9 22 6 168 17 158 2 -2 4 -26 4 -54z"/>
<path d="M10579 3400 c-8 -4 -54 -10 -104 -13 -51 -3 -91 -10 -93 -16 -2 -6
-8 -11 -14 -11 -5 0 -16 -7 -24 -15 -9 -8 -22 -15 -30 -15 -8 0 -14 7 -14 15
0 16 -12 20 -24 8 -7 -8 -11 -9 -38 -12 -10 -1 -10 -3 0 -10 11 -6 10 -10 -4
-15 -10 -4 -21 -1 -25 6 -7 11 -12 11 -29 0 -11 -7 -25 -10 -29 -7 -5 2 -14
-2 -21 -10 -7 -8 -18 -15 -25 -15 -21 0 -124 -63 -119 -72 3 -4 -2 -5 -10 -2
-9 3 -18 0 -21 -8 -3 -8 -12 -15 -20 -15 -11 0 -194 -116 -232 -148 -7 -5 -25
-19 -39 -30 -40 -30 -128 -109 -133 -118 -2 -5 -13 -20 -25 -34 -21 -25 -22
-29 -9 -67 9 -24 33 -57 61 -82 26 -23 58 -53 72 -66 46 -43 60 -47 107 -30
24 9 43 23 43 31 0 7 9 23 21 35 11 12 54 56 94 99 41 42 78 77 83 77 5 0 23
14 40 30 61 58 63 37 6 -91 -30 -66 -54 -126 -54 -133 0 -8 -6 -19 -14 -26 -8
-6 -13 -17 -10 -24 3 -7 -18 -59 -46 -116 -27 -57 -50 -109 -50 -115 0 -7 -7
-18 -15 -25 -8 -7 -15 -21 -15 -32 0 -11 -9 -37 -19 -57 -25 -47 -53 -112 -81
-186 -13 -33 -38 -96 -57 -141 -18 -45 -33 -85 -33 -90 0 -5 -31 -41 -69 -80
-38 -39 -81 -91 -96 -114 -15 -24 -35 -52 -45 -63 -10 -10 -26 -48 -36 -84
-13 -49 -20 -61 -25 -47 -7 18 -7 18 -14 0 -5 -11 -3 -21 5 -26 11 -7 11 -11
1 -24 -10 -12 -11 -23 -3 -46 9 -24 8 -30 -4 -30 -19 0 -18 -16 3 -24 12 -5
14 -9 5 -18 -7 -7 -12 -24 -12 -39 0 -16 -7 -29 -16 -33 -13 -5 -15 -2 -9 16
18 59 18 68 1 62 -10 -4 -16 -18 -16 -38 0 -53 11 -76 34 -76 17 0 19 -2 6
-11 -11 -8 -12 -12 -2 -16 6 -2 12 -11 12 -19 0 -8 4 -14 10 -14 5 0 7 -7 4
-15 -6 -15 1 -18 46 -16 14 0 19 -2 13 -5 -15 -7 -17 -50 -3 -59 5 -3 7 -12 4
-19 -7 -19 56 -41 69 -24 6 9 7 8 4 -3 -3 -10 5 -26 19 -40 13 -12 22 -25 19
-27 -3 -3 -12 3 -19 14 -8 10 -17 17 -19 14 -8 -8 13 -32 59 -67 96 -75 295
-59 489 39 60 31 202 130 230 161 11 13 34 28 50 35 17 7 53 39 80 72 51 59
79 82 68 54 -4 -11 4 -9 31 7 40 23 46 31 61 72 6 16 31 41 59 60 54 35 108
117 100 152 -3 14 10 35 43 70 27 28 54 58 62 68 12 16 12 17 -5 11 -18 -7
-18 -7 -1 13 9 11 17 25 17 31 0 7 6 12 13 12 16 0 54 41 90 98 29 45 28 73
-1 50 -15 -12 -16 -11 -3 4 7 10 24 18 36 18 13 0 25 7 29 15 3 8 1 15 -4 15
-6 0 -10 -5 -10 -12 0 -6 -3 -9 -6 -6 -7 7 17 50 34 61 16 11 47 69 44 85 -2
6 2 12 8 12 5 0 10 9 10 19 0 11 6 22 13 24 7 3 7 6 1 6 -6 1 -19 -8 -29 -19
-10 -11 -24 -20 -30 -20 -7 0 7 20 31 44 34 33 44 51 44 75 0 18 12 53 27 79
18 31 23 47 15 50 -17 5 -15 23 9 94 11 34 22 86 24 117 3 31 7 90 11 131 6
69 5 74 -10 61 -22 -18 -22 5 -1 30 14 14 14 19 2 31 -8 8 -12 26 -10 43 3 17
-1 44 -8 60 -7 17 -11 37 -10 46 1 9 -5 22 -14 29 -8 7 -15 20 -15 30 0 10
-19 53 -42 97 -31 57 -64 98 -120 151 -42 39 -84 72 -94 72 -9 0 -29 11 -46
25 -16 14 -42 25 -58 25 -16 0 -41 5 -56 10 -36 14 -117 20 -135 10z m201
-230 c0 -13 16 -25 56 -40 66 -24 86 -45 115 -120 28 -72 37 -243 18 -344 -7
-39 -14 -78 -14 -86 0 -8 -9 -33 -18 -55 -10 -22 -27 -78 -38 -125 -11 -48
-33 -106 -49 -133 -17 -27 -30 -54 -30 -60 -1 -7 -12 -30 -25 -52 -14 -22 -34
-58 -46 -80 -12 -22 -28 -48 -37 -57 -8 -10 -12 -18 -8 -18 4 0 -3 -13 -16
-29 -12 -17 -43 -57 -68 -91 -25 -34 -62 -81 -82 -104 -21 -24 -38 -47 -38
-52 0 -5 -62 -73 -138 -151 -98 -101 -145 -143 -161 -143 -17 0 -21 -4 -17
-15 3 -8 2 -15 -3 -15 -4 0 -20 -11 -36 -25 -15 -14 -40 -28 -55 -32 -17 -3
-27 -10 -24 -17 4 -12 -79 -56 -104 -56 -7 0 -17 -9 -24 -20 -7 -11 -20 -20
-29 -20 -8 0 -39 -11 -67 -25 -29 -14 -60 -25 -71 -25 -10 0 -21 -6 -24 -14
-7 -18 -77 -29 -95 -14 -8 7 -16 8 -20 2 -4 -5 -17 -9 -29 -10 -19 0 -23 6
-29 45 -4 26 -2 67 5 96 6 27 13 64 15 81 2 18 9 41 15 52 15 28 14 45 -1 37
-7 -4 -5 0 5 8 9 8 17 20 17 28 -1 10 -4 9 -14 -3 -16 -22 -46 -24 -46 -3 0
25 4 30 20 27 12 -2 13 -1 1 7 -9 6 -11 15 -6 27 5 11 7 23 6 27 0 4 6 10 14
12 8 3 23 8 33 12 9 3 21 5 25 4 5 -1 11 8 14 19 3 11 9 20 14 20 5 0 29 18
54 41 24 22 49 38 55 34 13 -8 68 32 128 92 23 24 49 43 56 43 8 0 33 16 57
36 23 19 57 41 76 49 18 8 33 18 33 23 0 5 26 22 58 38 62 31 82 46 82 63 0 6
8 11 18 11 23 0 118 45 127 61 6 9 3 10 -11 5 -10 -4 -57 -18 -104 -30 -47
-12 -91 -25 -97 -29 -7 -5 -17 -5 -23 -2 -5 3 -23 -1 -40 -10 -16 -8 -31 -15
-32 -14 -2 2 -12 -2 -23 -8 -11 -6 -32 -13 -47 -17 l-28 -6 21 52 c11 29 32
80 47 113 15 33 27 62 28 65 1 11 95 200 99 200 2 0 2 -8 -2 -17 -5 -14 0 -12
20 6 24 22 53 89 42 99 -2 2 -14 -11 -25 -29 -12 -19 -20 -29 -18 -24 20 59
35 86 51 91 13 4 16 9 8 13 -8 5 -5 23 11 62 31 79 51 122 66 137 12 13 13 22
16 114 1 44 0 47 -29 52 -120 21 -167 32 -168 41 -1 19 206 115 288 134 116
27 197 37 233 30 18 -4 32 -3 32 2 0 5 -4 9 -8 9 -5 0 -16 6 -26 13 -15 11
-12 12 23 9 32 -3 41 -8 41 -22z m-686 -479 c3 -4 -7 -14 -21 -20 -19 -9 -23
-15 -15 -20 10 -6 8 -14 -6 -32 -30 -38 -34 -58 -11 -52 36 10 22 -33 -23 -70
-37 -31 -43 -41 -43 -76 0 -22 -2 -36 -5 -31 -3 5 -11 0 -18 -10 -7 -12 -8
-20 -2 -20 5 0 10 -4 10 -10 0 -5 -6 -10 -14 -10 -7 0 -19 -13 -26 -30 -7 -16
-18 -34 -26 -41 -11 -9 -12 -5 -4 20 6 22 5 31 -3 31 -7 0 -4 7 6 14 20 15 23
36 5 36 -7 1 -2 7 12 15 18 9 30 28 38 63 10 35 20 52 37 60 15 7 25 7 27 1 2
-5 11 5 21 23 10 18 12 26 5 18 -7 -8 -18 -16 -23 -17 -6 -1 -19 -4 -30 -8
-18 -6 -18 -5 3 13 15 14 18 22 10 25 -10 4 -10 7 0 15 18 12 43 62 37 73 -6
9 30 49 44 49 6 0 12 -4 15 -9z m1042 -267 c-9 -13 -16 -32 -16 -43 0 -11 -4
-23 -10 -26 -15 -9 -12 19 6 65 9 22 20 37 26 34 5 -3 3 -16 -6 -30z m-1202
11 c-4 -8 -16 -15 -28 -15 -21 1 -21 1 -2 15 25 19 37 19 30 0z m-62 -227 c-7
-7 -12 -8 -12 -2 0 14 12 26 19 19 2 -3 -1 -11 -7 -17z m6 -43 c-6 -14 -17
-25 -24 -25 -7 0 -17 -8 -23 -17 -5 -10 -13 -15 -16 -11 -9 9 46 78 62 78 10
0 10 -6 1 -25z m1142 -118 c0 -14 -34 -67 -52 -83 -23 -19 -23 -19 -6 2 10 11
23 35 29 52 6 18 15 32 20 32 5 0 9 -2 9 -3z m-913 -33 c-3 -3 -12 -4 -19 -1
-8 3 -5 6 6 6 11 1 17 -2 13 -5z m550 -176 c-3 -8 -6 -5 -6 6 -1 11 2 17 5 13
3 -3 4 -12 1 -19z m43 -26 c0 -4 -5 -13 -12 -20 -9 -9 -9 -12 3 -13 7 0 4 -4
-9 -10 -18 -7 -23 -16 -21 -36 2 -20 -9 -40 -37 -72 -69 -79 -154 -161 -166
-161 -6 0 -20 -8 -31 -17 -15 -14 -21 -15 -25 -5 -3 10 -8 10 -21 -3 -9 -9
-25 -22 -36 -30 -17 -11 -18 -16 -7 -27 11 -11 17 -9 33 11 10 13 19 20 19 17
0 -4 14 0 30 9 24 13 30 13 30 2 0 -14 -33 -48 -62 -63 -16 -9 -96 -78 -149
-129 -14 -14 -30 -25 -34 -25 -5 0 -18 -9 -29 -19 -12 -11 -43 -31 -70 -45
-27 -14 -41 -26 -32 -26 9 0 14 -4 11 -10 -8 -13 -45 -13 -65 0 -11 7 -2 15
40 34 63 28 172 126 140 126 -6 0 -8 5 -4 11 3 6 15 9 25 6 12 -3 26 4 39 20
23 30 18 44 -7 21 -10 -9 -33 -19 -50 -23 -43 -9 -45 16 -3 47 17 12 30 28 30
35 0 7 12 20 28 30 42 27 91 74 118 116 18 27 31 37 50 37 14 0 23 4 20 9 -3
4 8 20 24 34 19 18 30 22 34 14 3 -7 3 -2 0 10 -3 15 1 25 15 32 25 14 34 14
26 1 -3 -5 -2 -10 4 -10 6 0 15 9 21 20 9 16 8 20 -5 20 -18 0 -21 20 -2 21
47 3 62 9 90 37 31 32 47 40 47 24z m-1266 -280 c-3 -17 -13 -33 -21 -37 -13
-4 -14 1 -9 27 5 28 24 53 33 44 2 -2 0 -17 -3 -34z m-52 -114 c-8 -8 -9 -4
-5 13 4 13 8 18 11 10 2 -7 -1 -18 -6 -23z m-12 -34 c0 -8 -4 -12 -10 -9 -5 3
-10 10 -10 16 0 5 5 9 10 9 6 0 10 -7 10 -16z m10 -71 c-11 -17 -11 -17 -6 0
3 10 6 24 7 30 0 9 2 9 5 0 3 -7 0 -20 -6 -30z m794 -2 c9 -14 -31 -43 -55
-39 -33 5 -34 22 -2 35 36 14 51 15 57 4z m-84 -65 c0 -17 -63 -66 -84 -66 -9
0 -16 -6 -16 -13 0 -14 -116 -54 -127 -44 -11 12 6 36 29 39 15 2 23 9 22 21
-1 12 5 17 21 17 35 0 54 10 49 25 -6 15 36 33 79 34 17 1 27 -4 27 -13z
m-300 -146 c0 -5 -4 -10 -9 -10 -5 0 -18 -3 -28 -6 -16 -5 -16 -4 1 10 23 18
36 20 36 6z m125 -30 c-3 -5 -13 -10 -21 -10 -8 0 -12 5 -9 10 3 6 13 10 21
10 8 0 12 -4 9 -10z m48 3 c-7 -2 -19 -2 -25 0 -7 3 -2 5 12 5 14 0 19 -2 13
-5z"/>
<path d="M10576 1661 c-4 -5 3 -7 14 -4 23 6 26 13 6 13 -8 0 -17 -4 -20 -9z"/>
<path d="M10245 1430 c-3 -5 -2 -10 4 -10 5 0 13 5 16 10 3 6 2 10 -4 10 -5 0
-13 -4 -16 -10z"/>
<path d="M10305 1400 c-3 -5 -2 -10 4 -10 5 0 13 5 16 10 3 6 2 10 -4 10 -5 0
-13 -4 -16 -10z"/>
<path d="M9914 1158 c-3 -4 -14 -8 -25 -8 -10 0 -19 -4 -19 -10 0 -5 6 -10 14
-10 8 0 18 5 21 10 3 6 17 10 31 10 13 0 24 4 24 8 0 4 -9 8 -21 8 -11 0 -23
-4 -25 -8z"/>
<path d="M8355 3320 c-3 -5 -1 -10 4 -10 6 0 11 5 11 10 0 6 -2 10 -4 10 -3 0
-8 -4 -11 -10z"/>
<path d="M8330 3290 c-9 -6 -10 -10 -3 -10 6 0 15 5 18 10 8 12 4 12 -15 0z"/>
<path d="M11955 3260 c-3 -5 -1 -10 4 -10 6 0 11 5 11 10 0 6 -2 10 -4 10 -3
0 -8 -4 -11 -10z"/>
<path d="M11930 3230 c-9 -6 -10 -10 -3 -10 6 0 15 5 18 10 8 12 4 12 -15 0z"/>
<path d="M5652 3175 c-7 -8 -9 -15 -4 -15 5 0 15 7 22 15 16 19 -1 19 -18 0z"/>
<path d="M5365 3040 c-3 -5 -2 -10 4 -10 5 0 13 5 16 10 3 6 2 10 -4 10 -5 0
-13 -4 -16 -10z"/>
<path d="M5330 3031 c0 -5 -3 -16 -6 -25 -3 -9 -2 -16 4 -16 5 0 12 11 14 25
3 14 1 25 -3 25 -5 0 -9 -4 -9 -9z"/>
<path d="M5455 2990 c-3 -5 -1 -10 4 -10 6 0 11 5 11 10 0 6 -2 10 -4 10 -3 0
-8 -4 -11 -10z"/>
<path d="M5290 2979 c0 -5 5 -7 10 -4 6 3 10 8 10 11 0 2 -4 4 -10 4 -5 0 -10
-5 -10 -11z"/>
<path d="M5357 2903 c-4 -3 -7 -11 -7 -17 0 -6 5 -5 12 2 6 6 9 14 7 17 -3 3
-9 2 -12 -2z"/>
<path d="M5282 2839 c-12 -19 -11 -19 8 -9 11 6 20 15 20 20 0 17 -15 11 -28
-11z"/>
<path d="M7177 2707 c-11 -29 -9 -43 4 -30 6 6 9 19 7 29 -3 18 -4 18 -11 1z"/>
<path d="M4987 2614 c-4 -4 -7 -14 -7 -23 0 -11 3 -12 11 -4 6 6 10 16 7 23
-2 6 -7 8 -11 4z"/>
<path d="M2680 2169 c0 -5 -4 -8 -9 -4 -11 6 -26 -33 -17 -43 8 -7 35 28 36
46 0 6 -2 12 -5 12 -3 0 -5 -5 -5 -11z"/>
<path d="M2620 2150 c-6 -12 -9 -24 -7 -27 3 -2 11 5 17 17 6 12 9 24 7 27 -3
2 -11 -5 -17 -17z"/>
<path d="M2686 2103 c-6 -14 -5 -15 5 -6 7 7 10 15 7 18 -3 3 -9 -2 -12 -12z"/>
<path d="M2592 2077 c-18 -50 -15 -66 8 -37 19 25 27 70 12 70 -4 0 -13 -15
-20 -33z"/>
<path d="M3662 2050 c-18 -29 -15 -48 4 -22 8 12 14 27 12 32 -2 6 -9 1 -16
-10z"/>
<path d="M3622 1970 c-31 -41 -28 -48 4 -10 15 17 24 33 22 35 -2 3 -14 -9
-26 -25z"/>
<path d="M4057 1943 c-8 -27 -12 -50 -10 -53 10 -11 43 44 43 71 0 44 -18 34
-33 -18z"/>
<path d="M4054 1866 c-16 -18 -12 -128 5 -134 11 -4 13 7 9 56 -4 41 -2 62 5
65 8 3 9 8 2 15 -7 7 -13 7 -21 -2z"/>
<path d="M3551 1834 c0 -11 3 -14 6 -6 3 7 2 16 -1 19 -3 4 -6 -2 -5 -13z"/>
<path d="M4087 1818 c-6 -21 -2 -36 7 -27 10 11 16 49 8 49 -5 0 -12 -10 -15
-22z"/>
<path d="M3516 1773 c-6 -14 -5 -15 5 -6 7 7 10 15 7 18 -3 3 -9 -2 -12 -12z"/>
<path d="M3483 1728 c-12 -15 -63 -125 -63 -136 0 -4 19 26 41 66 23 40 39 75
37 78 -3 2 -10 -1 -15 -8z"/>
<path d="M4020 1700 c0 -5 5 -10 11 -10 5 0 7 5 4 10 -3 6 -8 10 -11 10 -2 0
-4 -4 -4 -10z"/>
<path d="M4066 1674 c-11 -27 -7 -37 9 -24 16 14 20 40 6 40 -5 0 -12 -7 -15
-16z"/>
<path d="M6823 1673 c-18 -7 -16 -23 2 -23 8 0 15 7 15 15 0 8 -1 15 -2 14 -2
0 -9 -3 -15 -6z"/>
<path d="M4040 1546 c0 -35 15 -40 16 -5 1 16 -3 29 -7 29 -5 0 -9 -11 -9 -24z"/>
<path d="M4004 1495 c-3 -8 -1 -27 4 -42 10 -27 10 -26 11 15 1 43 -5 54 -15
27z"/>
<path d="M3970 1401 c0 -5 5 -13 10 -16 6 -3 10 -2 10 4 0 5 -4 13 -10 16 -5
3 -10 2 -10 -4z"/>
<path d="M3996 1384 c-3 -9 -2 -23 4 -32 7 -14 9 -10 10 16 0 35 -5 41 -14 16z"/>
<path d="M9305 1380 c-3 -11 -2 -28 4 -37 8 -15 10 -11 11 20 0 41 -5 47 -15
17z"/>
<path d="M4737 1343 c-4 -3 -7 -11 -7 -17 0 -6 5 -5 12 2 6 6 9 14 7 17 -3 3
-9 2 -12 -2z"/>
<path d="M4713 1274 c-18 -56 -16 -77 3 -34 8 19 14 43 12 55 -2 14 -7 7 -15
-21z"/>
<path d="M3974 1159 c-3 -6 -1 -16 5 -22 8 -8 11 -5 11 11 0 24 -5 28 -16 11z"/>
<path d="M9385 1040 c3 -5 8 -10 11 -10 2 0 4 5 4 10 0 6 -5 10 -11 10 -5 0
-7 -4 -4 -10z"/>
<path d="M6950 960 c0 -5 5 -10 10 -10 6 0 10 5 10 10 0 6 -4 10 -10 10 -5 0
-10 -4 -10 -10z"/>
</g>
</svg>
